<?xml version="1.0" encoding="utf-8"?>
<!-- Generator: Adobe Illustrator 22.0.1, SVG Export Plug-In . SVG Version: 6.00 Build 0)  -->
<svg version="1.1" id="Layer_1" xmlns="http://www.w3.org/2000/svg" xmlns:xlink="http://www.w3.org/1999/xlink" x="0px" y="0px"
	 viewBox="0 0 108.2 31.3" style="enable-background:new 0 0 108.2 31.3;" xml:space="preserve">
<style type="text/css">
	.st0{fill:#00B7F1;}
	.st1{fill:#FFFFFF;}
	.st2{fill:#CFD0DE;}
	.st3{fill:#585A8C;}
	.st4{fill:#70719C;}
	.st5{fill:#9FA0BD;}
</style>
<g>
	<path class="st0" d="M70.2,23.7c0,0.2,0,0.4,0.1,0.6c0.1,0.2,0.2,0.3,0.3,0.5c0.1,0.1,0.3,0.2,0.5,0.3c0.2,0.1,0.4,0.1,0.6,0.1
		c0.2,0,0.4-0.1,0.6-0.2c0.2-0.1,0.3-0.2,0.5-0.4l0.4,0.3c-0.2,0.3-0.4,0.4-0.7,0.6c-0.3,0.1-0.6,0.2-0.9,0.2
		c-0.3,0-0.5-0.1-0.8-0.2c-0.2-0.1-0.5-0.2-0.6-0.4c-0.2-0.2-0.3-0.4-0.4-0.6c-0.1-0.2-0.2-0.5-0.2-0.8c0-0.3,0.1-0.5,0.2-0.8
		c0.1-0.2,0.2-0.4,0.4-0.6c0.2-0.2,0.4-0.3,0.6-0.4c0.2-0.1,0.5-0.2,0.8-0.2c0.3,0,0.6,0.1,0.9,0.2c0.3,0.1,0.5,0.3,0.7,0.6
		l-0.4,0.3c-0.1-0.2-0.3-0.3-0.5-0.4c-0.2-0.1-0.4-0.2-0.6-0.2c-0.2,0-0.4,0-0.6,0.1c-0.2,0.1-0.3,0.2-0.5,0.3
		c-0.1,0.1-0.2,0.3-0.3,0.5C70.2,23.3,70.2,23.5,70.2,23.7"/>
	<path class="st0" d="M75.3,24.7l-0.4,0.9h-0.6l1.8-3.9l1.8,3.9h-0.6l-0.4-0.9H75.3z M76.1,22.8L76.1,22.8l-0.6,1.4h1.2L76.1,22.8z"
		/>
	<path class="st0" d="M79.9,25.6h-0.6v-3.8H80c1,0,1.5,0.4,1.5,1.1c0,0.2,0,0.4-0.1,0.5c-0.1,0.1-0.2,0.3-0.3,0.3
		c-0.1,0.1-0.3,0.2-0.4,0.2c-0.2,0-0.4,0.1-0.5,0.1h-0.2V25.6z M79.9,23.5L79.9,23.5c0.2,0,0.3,0,0.5,0c0.1,0,0.2,0,0.3-0.1
		c0.1,0,0.2-0.1,0.2-0.2c0.1-0.1,0.1-0.2,0.1-0.3c0-0.1,0-0.3-0.1-0.3c-0.1-0.1-0.1-0.1-0.2-0.2c-0.1,0-0.2-0.1-0.3-0.1
		c-0.1,0-0.2,0-0.3,0h-0.1V23.5z"/>
	<rect x="83" y="21.8" class="st0" width="0.6" height="3.8"/>
	<polygon class="st0" points="86.6,25.6 86,25.6 86,22.3 85.1,22.3 85.1,21.8 87.4,21.8 87.4,22.3 86.6,22.3 	"/>
	<path class="st0" d="M89.1,24.7l-0.4,0.9h-0.6l1.8-3.9l1.8,3.9h-0.6l-0.4-0.9H89.1z M90,22.8L90,22.8l-0.6,1.4h1.2L90,22.8z"/>
	<polygon class="st0" points="93.7,25.1 95,25.1 95,25.6 93.2,25.6 93.2,21.8 93.7,21.8 	"/>
	<polygon class="st1" points="46.1,4.9 44,10.4 40.8,10.4 40.8,12.9 43,12.9 40.8,18.4 44.1,18.4 46,12.9 47.1,12.9 48.1,10.4 
		46.9,10.4 47.5,8.7 47.6,8.7 51.1,18.4 54.4,18.4 49.1,4.9 	"/>
	<path class="st1" d="M94.5,9c-0.4-0.8-0.8-1.5-1.4-2.1c-0.6-0.6-1.3-1.1-2.1-1.4c-0.8-0.3-1.7-0.5-2.6-0.5s-1.8,0.2-2.6,0.5
		c-0.8,0.3-1.5,0.8-2.1,1.4c-0.6,0.6-1.1,1.3-1.4,2.1c-0.4,0.8-0.5,1.7-0.5,2.7c0,1,0.2,1.9,0.5,2.7c0.4,0.8,0.8,1.5,1.4,2.1
		c0.6,0.6,1.3,1.1,2.1,1.4c0.8,0.3,1.7,0.5,2.6,0.5s1.8-0.2,2.6-0.5c0.8-0.3,1.5-0.8,2.1-1.4c0.6-0.6,1.1-1.3,1.4-2.1
		c0.4-0.8,0.5-1.7,0.5-2.7C95,10.7,94.8,9.8,94.5,9 M91.8,13.2c-0.2,0.5-0.5,0.9-0.8,1.3c-0.3,0.4-0.7,0.6-1.2,0.9
		c-0.5,0.2-1,0.3-1.5,0.3s-1.1-0.1-1.5-0.3c-0.5-0.2-0.9-0.5-1.2-0.9c-0.3-0.4-0.6-0.8-0.8-1.3c-0.2-0.5-0.3-1-0.3-1.6
		s0.1-1.1,0.3-1.6c0.2-0.5,0.5-0.9,0.8-1.3c0.3-0.4,0.7-0.6,1.2-0.9c0.5-0.2,1-0.3,1.5-0.3s1.1,0.1,1.5,0.3c0.5,0.2,0.9,0.5,1.2,0.9
		c0.3,0.4,0.6,0.8,0.8,1.3c0.2,0.5,0.3,1,0.3,1.6S91.9,12.7,91.8,13.2"/>
	<polygon class="st1" points="56.1,18.4 66.2,18.4 66.2,15.9 58.6,15.9 58.6,12.9 66.2,12.9 66.2,10.4 58.6,10.4 58.6,7.4 66.2,7.4 
		66.2,4.9 56.1,4.9 	"/>
	<polygon class="st1" points="69.6,7.4 73.4,7.4 73.4,18.4 76,18.4 76,7.4 79.8,7.4 79.8,4.9 69.6,4.9 	"/>
</g>
<path class="st1" d="M5.4,2.5c-1.5,0-2.7,1.2-2.7,2.7v0.7v19.4v3.4h24.8c1.5,0,2.7-1.2,2.7-2.7v-0.7V5.9V2.5H5.4z"/>
<path class="st2" d="M16.6,24c-0.2,0-0.4,0-0.6,0c-3.3-0.2-6.2-2.2-7.5-5.3c-0.1-0.3,0-0.6,0.3-0.7c0.3-0.1,0.6,0,0.7,0.3
	c1.2,2.7,3.7,4.4,6.6,4.6c1.5,0.1,3-0.2,4.3-1c0.6-0.3,1.2-0.8,1.7-1.3c-0.8,0.2-1.7,0.2-2.6-0.2c-0.3-0.1-0.4-0.4-0.2-0.7
	c0.1-0.3,0.4-0.4,0.7-0.2c1.7,0.8,3.5-0.7,3.6-0.8c0.2-0.2,0.5-0.2,0.7,0c0.2,0.2,0.2,0.4,0.1,0.7c-0.8,1.4-2,2.6-3.4,3.4
	C19.6,23.7,18.1,24,16.6,24"/>
<path class="st3" d="M23.3,15.3l-6.7-7.8c-0.2-0.3-0.7-0.3-0.9-0.1c-0.3,0.2-0.3,0.7-0.1,0.9l6.7,7.8c0.1,0.2,0.3,0.2,0.5,0.2
	c0.2,0,0.3-0.1,0.4-0.2C23.5,16,23.6,15.6,23.3,15.3"/>
<path class="st4" d="M18.7,17.9L16.7,7.8c-0.1-0.4-0.4-0.6-0.8-0.5c-0.4,0.1-0.6,0.4-0.5,0.8l1.9,10.1c0.1,0.3,0.3,0.5,0.6,0.5
	c0,0,0.1,0,0.1,0C18.5,18.6,18.7,18.3,18.7,17.9"/>
<path class="st5" d="M16.2,7.3c-0.4-0.1-0.7,0.2-0.8,0.5l-1.7,10.2c-0.1,0.4,0.2,0.7,0.5,0.8c0,0,0.1,0,0.1,0c0.3,0,0.6-0.2,0.6-0.5
	l1.7-10.2C16.8,7.7,16.6,7.4,16.2,7.3"/>
<path class="st2" d="M16.4,7.4c-0.3-0.2-0.7-0.1-0.9,0.2l-5.5,8.7c-0.2,0.3-0.1,0.7,0.2,0.9c0.1,0.1,0.2,0.1,0.3,0.1
	c0.2,0,0.4-0.1,0.6-0.3l5.5-8.7C16.8,8,16.8,7.6,16.4,7.4"/>
</svg>
